<svg width="100" height="100" viewBox="0 0 100 100" fill="none" xmlns="http://www.w3.org/2000/svg" style="width: 170px; height: 170px;"><style>
     .line-rose1 {animation:line-rose1 4s -2.5s infinite; stroke-dasharray: 140; stroke-dashoffset: 140;}
     @keyframes line-rose1 {
         25%{stroke-dashoffset: 140;}
         90%{stroke-dashoffset: 0;}
         100%{stroke-dashoffset: 0;}
     }
     @media (prefers-reduced-motion: reduce) {
         .line-rose1 {
             animation: none;
         }
     }
    </style><g class="line-rose1" style="animation-duration: 2s;"><path class="fill1" d="M63.5 25.5C63.9672 31.6571 69.5707 34.4188 68.5 40.5C67.8108 44.414 66.7504 46.8939 63.75 49.5C59.8882 52.8544 51 52.5 51 52.5V73.25V79C51 79 53.184 72.4435 56.5 70C60.2953 67.2034 67.8739 68.0997 69.9585 68.4122C70.2516 68.4561 70.4272 68.7426 70.3345 69.0241C69.6116 71.2206 66.5398 79.6344 61.5 81C57.4711 82.0917 51 79 51 79V73.25C51 73.25 45.2602 76.13 41.5 75.5C36.0434 74.5859 32.1498 65.8444 31.2158 63.5495C31.0987 63.2618 31.2799 62.9517 31.5873 62.9067C33.5984 62.6122 40.2888 61.8447 44 64C47.9174 66.2751 51 73.25 51 73.25V52.5C51 52.5 42.7162 52.8475 38.75 50C34.8736 47.217 33.5873 44.1465 32.5 39.5C30.7948 32.213 38.8556 28.3602 37.5 21C37.0753 18.6943 35.7125 15.7748 34.8181 14.0267C34.5896 13.5802 35.0875 13.0778 35.5304 13.3131L40.5882 16C40.5882 16 48.6166 8.01454 54 10C57.0239 11.1153 60 15.6667 60 15.6667L64.0111 13.5275C64.3928 13.3239 64.8433 13.6664 64.7511 14.089C64.255 16.3657 63.2139 21.7298 63.5 25.5Z" fill="rgba(224,197,110,1)" stroke-width="2.0px"></path><path class="stroke1" d="M51 94V79M51 52.5C51 52.5 41.9296 45.4948 41 39C39.8865 31.2202 50 21 50 21M51 52.5C51 52.5 42.7162 52.8475 38.75 50C34.8736 47.217 33.5873 44.1465 32.5 39.5C30.7948 32.213 38.8556 28.3602 37.5 21C37.0753 18.6943 35.7125 15.7748 34.8181 14.0267C34.5896 13.5802 35.0875 13.0778 35.5304 13.3131L40.5882 16M51 52.5C51 52.5 59.8882 52.8544 63.75 49.5C66.7504 46.8939 67.8108 44.414 68.5 40.5C69.5707 34.4189 63.9672 31.6571 63.5 25.5C63.2139 21.7298 64.255 16.3657 64.7511 14.089C64.8433 13.6664 64.3928 13.3239 64.0111 13.5275L60 15.6667M51 52.5V73.25M50 21L40.5882 16M50 21L60 15.6667M40.5882 16C40.5882 16 48.6166 8.01454 54 10C57.0239 11.1153 60 15.6667 60 15.6667M51 73.25C51 73.25 45.2602 76.13 41.5 75.5C36.0434 74.5859 32.1498 65.8444 31.2158 63.5495C31.0987 63.2618 31.2799 62.9517 31.5873 62.9067C33.5984 62.6122 40.2888 61.8447 44 64C47.9174 66.2751 51 73.25 51 73.25ZM51 73.25V79M51 79C51 79 53.184 72.4435 56.5 70C60.2953 67.2034 67.8739 68.0997 69.9585 68.4122C70.2516 68.4561 70.4272 68.7426 70.3345 69.0241C69.6116 71.2206 66.5398 79.6344 61.5 81C57.4711 82.0917 51 79 51 79Z" stroke="#000" stroke-width="2.0px"></path></g></svg>