<!-- Generated by IcoMoon.io -->
<svg version="1.1" xmlns="http://www.w3.org/2000/svg" width="448" height="448" viewBox="0 0 448 448">
<title></title>
<g id="icomoon-ignore">
</g>
<path fill="#000" d="M368 224c0-79.5-64.5-144-144-144s-144 64.5-144 144 64.5 144 144 144 144-64.5 144-144zM437 293.25c-0.75 2.5-2.75 4.25-5 5l-73 24v76.5c0 2.5-1.25 5-3.25 6.5-2.25 1.5-4.75 2-7.25 1l-73-23.5-45 62c-1.5 2-4 3.25-6.5 3.25s-5-1.25-6.5-3.25l-45-62-73 23.5c-2.5 1-5 0.5-7.25-1-2-1.5-3.25-4-3.25-6.5v-76.5l-73-24c-2.25-0.75-4.25-2.5-5-5s-0.5-5.25 1-7.25l45-62-45-62c-1.5-2.25-1.75-4.75-1-7.25s2.75-4.25 5-5l73-24v-76.5c0-2.5 1.25-5 3.25-6.5 2.25-1.5 4.75-2 7.25-1l73 23.5 45-62c3-4 10-4 13 0l45 62 73-23.5c2.5-1 5-0.5 7.25 1 2 1.5 3.25 4 3.25 6.5v76.5l73 24c2.25 0.75 4.25 2.5 5 5s0.5 5-1 7.25l-45 62 45 62c1.5 2 1.75 4.75 1 7.25z"></path>
</svg>
